<svg xmlns="http://www.w3.org/2000/svg" viewBox="0 0 1440 420" fill="none"><defs><linearGradient id="g" x1="0" y1="0" x2="1" y2="1"><stop offset="0" stop-color="#fff3e6"/><stop offset=".55" stop-color="#fde9f1"/><stop offset="1" stop-color="#efeafb"/></linearGradient></defs><rect width="1440" height="420" fill="url(#g)"/><circle cx="1180" cy="90" r="130" fill="#ffffff" opacity=".45"/><circle cx="1330" cy="330" r="90" fill="#fdf3d1" opacity=".55"/><circle cx="120" cy="360" r="150" fill="#ffffff" opacity=".35"/><path d="M1120 300h150l-14 74a16 16 0 01-16 14h-90a16 16 0 01-16-14z" fill="#ffffff" stroke="#d14d7e" stroke-width="5" stroke-linejoin="round" opacity=".9"/><path d="M1120 300c12 12 24 12 32 0s20-12 31 0 20 12 31 0 20-12 26 0" stroke="#d14d7e" stroke-width="5" fill="none" stroke-linejoin="round"/><circle cx="1195" cy="268" r="10" fill="#d14d7e"/><path d="M1195 268v-26" stroke="#96700f" stroke-width="5" stroke-linecap="round"/><g opacity=".65"><circle cx="990" cy="130" r="8" fill="#d14d7e"/><circle cx="1060" cy="90" r="5" fill="#96700f"/><circle cx="930" cy="210" r="6" fill="#6d55b8"/><circle cx="1300" cy="180" r="7" fill="#2e7d54"/></g></svg>